<svg width="1024" height="1024" viewBox="0 0 1024 1024" xmlns="http://www.w3.org/2000/svg">
  <defs>
    <linearGradient id="bg" x1="0" y1="0" x2="1" y2="1">
      <stop offset="0%" stop-color="#133251"/>
      <stop offset="100%" stop-color="#2E79BD"/>
    </linearGradient>
    <linearGradient id="cloud" x1="0" y1="0" x2="1" y2="1">
      <stop offset="0%" stop-color="#F6FBFF"/>
      <stop offset="100%" stop-color="#CFE7FF"/>
    </linearGradient>
  </defs>
  <rect x="56" y="56" width="912" height="912" rx="220" fill="url(#bg)"/>
  <g transform="translate(130 250)">
    <path d="M210 430h360c106 0 192-78 192-175 0-86-68-158-157-172-22-96-116-168-229-168-122 0-223 84-236 193-88 13-156 84-156 170 0 94 83 152 226 152z" fill="url(#cloud)"/>
    <path d="M280 390h220" stroke="#74AEEA" stroke-width="28" stroke-linecap="round"/>
    <path d="M250 446h290" stroke="#74AEEA" stroke-width="20" stroke-linecap="round" opacity="0.9"/>
  </g>
</svg>
